<svg id="Download_on_the_App_Store_Badge_US-UK_RGB_blk_092917" xmlns="http://www.w3.org/2000/svg" width="103.275" height="34.522" viewBox="0 0 103.275 34.522">
  <g id="Group_31" data-name="Group 31" transform="translate(0 0)">
    <g id="Group_29" data-name="Group 29">
      <path id="Path_49" data-name="Path 49" d="M95.05,0H8.229C7.912,0,7.6,0,7.284,0c-.264,0-.526.007-.793.011A11.4,11.4,0,0,0,4.761.165,5.752,5.752,0,0,0,3.121.706a5.556,5.556,0,0,0-1.4,1.017,5.4,5.4,0,0,0-1.017,1.4A5.7,5.7,0,0,0,.168,4.765,11.213,11.213,0,0,0,.013,6.493C.005,6.758,0,7.023,0,7.288V27.236c0,.268.005.528.013.8A11.213,11.213,0,0,0,.168,29.76,5.685,5.685,0,0,0,.707,31.4,5.358,5.358,0,0,0,1.724,32.8a5.415,5.415,0,0,0,1.4,1.017,5.783,5.783,0,0,0,1.641.544,11.612,11.612,0,0,0,1.729.153c.267.006.529.009.793.009.316,0,.628,0,.945,0H95.05c.31,0,.625,0,.936,0,.263,0,.533,0,.8-.009a11.46,11.46,0,0,0,1.726-.153,5.873,5.873,0,0,0,1.647-.544,5.418,5.418,0,0,0,1.4-1.017,5.519,5.519,0,0,0,1.02-1.393,5.7,5.7,0,0,0,.534-1.643,11.656,11.656,0,0,0,.16-1.728c0-.268,0-.528,0-.8.007-.314.007-.625.007-.944V8.23c0-.316,0-.63-.007-.942,0-.265,0-.53,0-.795a11.655,11.655,0,0,0-.16-1.728,5.712,5.712,0,0,0-.534-1.643A5.58,5.58,0,0,0,100.154.706,5.841,5.841,0,0,0,98.508.165,11.257,11.257,0,0,0,96.782.013c-.263,0-.533-.009-.8-.011-.31,0-.625,0-.936,0Z" transform="translate(0 0)" fill="#a6a6a6"/>
      <path id="Path_50" data-name="Path 50" d="M7.408,33.886c-.263,0-.52,0-.78-.009a10.95,10.95,0,0,1-1.613-.141,5.078,5.078,0,0,1-1.43-.473,4.665,4.665,0,0,1-1.206-.877A4.592,4.592,0,0,1,1.5,31.181a4.938,4.938,0,0,1-.469-1.43,10.713,10.713,0,0,1-.144-1.618c-.005-.182-.013-.788-.013-.788V7.408s.008-.6.013-.772A10.676,10.676,0,0,1,1.029,5.02,4.967,4.967,0,0,1,1.5,3.585a4.638,4.638,0,0,1,.876-1.206A4.8,4.8,0,0,1,3.584,1.5a5.026,5.026,0,0,1,1.427-.469A10.862,10.862,0,0,1,6.629.886L7.408.875H96.1l.788.011a10.689,10.689,0,0,1,1.6.14,5.125,5.125,0,0,1,1.442.473,4.828,4.828,0,0,1,2.084,2.088,4.974,4.974,0,0,1,.462,1.423,11.216,11.216,0,0,1,.15,1.629c0,.244,0,.507,0,.768.007.324.007.632.007.942V26.412c0,.314,0,.619-.007.928,0,.281,0,.538,0,.8a10.987,10.987,0,0,1-.147,1.6,4.953,4.953,0,0,1-.466,1.441,4.73,4.73,0,0,1-.876,1.2,4.672,4.672,0,0,1-1.208.882,5.059,5.059,0,0,1-1.44.474,10.825,10.825,0,0,1-1.613.141c-.253.006-.517.009-.774.009l-.936,0Z" transform="translate(-0.12 -0.12)"/>
    </g>
    <g id="_Group_" data-name="&lt;Group&gt;" transform="translate(8.606 7.526)">
      <g id="_Group_2" data-name="&lt;Group&gt;">
        <g id="_Group_3" data-name="&lt;Group&gt;">
          <path id="_Path_" data-name="&lt;Path&gt;" d="M22.742,19.434a4.271,4.271,0,0,1,2.034-3.583,4.372,4.372,0,0,0-3.445-1.862c-1.449-.152-2.854.867-3.593.867s-1.89-.852-3.114-.827a4.587,4.587,0,0,0-3.86,2.354c-1.669,2.89-.424,7.137,1.175,9.473.8,1.144,1.735,2.422,2.958,2.376,1.2-.05,1.644-.763,3.089-.763s1.851.763,3.1.735c1.285-.021,2.094-1.149,2.866-2.3a9.461,9.461,0,0,0,1.31-2.669A4.127,4.127,0,0,1,22.742,19.434Z" transform="translate(-9.972 -9.44)" fill="#fff"/>
          <path id="_Path_2" data-name="&lt;Path&gt;" d="M21.593,11.733a4.205,4.205,0,0,0,.962-3.013,4.278,4.278,0,0,0-2.768,1.432,4,4,0,0,0-.987,2.9A3.538,3.538,0,0,0,21.593,11.733Z" transform="translate(-11.179 -8.72)" fill="#fff"/>
        </g>
      </g>
      <g id="Group_30" data-name="Group 30" transform="translate(21.106 7.897)">
        <path id="Path_51" data-name="Path 51" d="M41.224,25.9H37.139l-.981,2.9h-1.73L38.3,18.078h1.8L43.964,28.8H42.2Zm-3.662-1.337H40.8l-1.6-4.7h-.045Z" transform="translate(-34.427 -17.899)" fill="#fff"/>
        <path id="Path_52" data-name="Path 52" d="M53.992,25.336c0,2.428-1.3,3.988-3.261,3.988a2.649,2.649,0,0,1-2.458-1.367h-.037v3.87h-1.6v-10.4h1.552v1.3h.029A2.772,2.772,0,0,1,50.7,21.347C52.684,21.347,53.992,22.915,53.992,25.336Zm-1.649,0c0-1.582-.818-2.622-2.065-2.622-1.225,0-2.05,1.062-2.05,2.622s.824,2.629,2.05,2.629C51.526,27.965,52.343,26.933,52.343,25.336Z" transform="translate(-36.099 -18.347)" fill="#fff"/>
        <path id="Path_53" data-name="Path 53" d="M63.956,25.336c0,2.428-1.3,3.988-3.261,3.988a2.649,2.649,0,0,1-2.458-1.367H58.2v3.87H56.6v-10.4h1.552v1.3h.029a2.772,2.772,0,0,1,2.488-1.381C62.649,21.347,63.956,22.915,63.956,25.336Zm-1.649,0c0-1.582-.818-2.622-2.065-2.622-1.225,0-2.05,1.062-2.05,2.622s.824,2.629,2.05,2.629c1.247,0,2.065-1.032,2.065-2.629Z" transform="translate(-37.464 -18.347)" fill="#fff"/>
        <path id="Path_54" data-name="Path 54" d="M71.45,25.781c.119,1.063,1.151,1.761,2.562,1.761,1.352,0,2.324-.7,2.324-1.656,0-.832-.587-1.33-1.976-1.671l-1.389-.335C71,23.4,70.09,22.484,70.09,20.99c0-1.849,1.611-3.119,3.9-3.119,2.265,0,3.817,1.27,3.869,3.119H76.24c-.1-1.07-.981-1.715-2.273-1.715s-2.176.653-2.176,1.6c0,.758.565,1.2,1.946,1.545l1.181.29c2.2.52,3.113,1.4,3.113,2.971,0,2.005-1.6,3.261-4.137,3.261-2.377,0-3.981-1.226-4.085-3.165Z" transform="translate(-39.273 -17.871)" fill="#fff"/>
        <path id="Path_55" data-name="Path 55" d="M82.91,19.3v1.849H84.4v1.27H82.91v4.308c0,.669.3.981.951.981a5.012,5.012,0,0,0,.528-.037v1.263a4.4,4.4,0,0,1-.891.074c-1.582,0-2.2-.594-2.2-2.11V22.419H80.163v-1.27H81.3V19.3Z" transform="translate(-40.691 -18.067)" fill="#fff"/>
        <path id="Path_56" data-name="Path 56" d="M86.065,25.334c0-2.458,1.448-4,3.706-4s3.707,1.545,3.707,4-1.434,4-3.707,4S86.065,27.8,86.065,25.334Zm5.778,0c0-1.686-.773-2.682-2.072-2.682s-2.072,1-2.072,2.682.772,2.681,2.072,2.681,2.072-.988,2.072-2.681Z" transform="translate(-41.5 -18.345)" fill="#fff"/>
        <path id="Path_57" data-name="Path 57" d="M96.186,21.429h1.53v1.33h.037a1.864,1.864,0,0,1,1.879-1.412,2.473,2.473,0,0,1,.55.06v1.5a2.242,2.242,0,0,0-.721-.1,1.616,1.616,0,0,0-1.671,1.8v4.635h-1.6Z" transform="translate(-42.886 -18.347)" fill="#fff"/>
        <path id="Path_58" data-name="Path 58" d="M108.266,26.946a3.136,3.136,0,0,1-3.364,2.392c-2.273,0-3.684-1.523-3.684-3.966s1.418-4.04,3.616-4.04c2.162,0,3.521,1.485,3.521,3.854v.55h-5.519v.1a2.035,2.035,0,0,0,2.1,2.213,1.768,1.768,0,0,0,1.8-1.1Zm-5.422-2.332h3.906a1.879,1.879,0,0,0-1.917-1.983,1.978,1.978,0,0,0-1.99,1.983Z" transform="translate(-43.575 -18.345)" fill="#fff"/>
      </g>
    </g>
  </g>
  <g id="_Group_4" data-name="&lt;Group&gt;" transform="translate(30.785 7.282)">
    <g id="Group_32" data-name="Group 32">
      <path id="Path_59" data-name="Path 59" d="M37.531,8.73a2.278,2.278,0,0,1,2.423,2.559,2.289,2.289,0,0,1-2.423,2.591h-1.86V8.73Zm-1.06,4.421h.971a1.619,1.619,0,0,0,1.7-1.852,1.623,1.623,0,0,0-1.7-1.842h-.971Z" transform="translate(-35.671 -8.476)" fill="#fff"/>
      <path id="Path_60" data-name="Path 60" d="M41.679,12.124a1.841,1.841,0,1,1,3.665,0,1.841,1.841,0,1,1-3.665,0Zm2.877,0c0-.842-.378-1.335-1.043-1.335s-1.042.493-1.042,1.335.375,1.338,1.042,1.338,1.043-.492,1.043-1.338Z" transform="translate(-36.493 -8.666)" fill="#fff"/>
      <path id="Path_61" data-name="Path 61" d="M50.888,14.081h-.8l-.8-2.862h-.061l-.8,2.862h-.788l-1.071-3.886h.778l.7,2.965H48.1l.8-2.965h.736l.8,2.965H50.5l.693-2.965h.767Z" transform="translate(-37.164 -8.678)" fill="#fff"/>
      <path id="Path_62" data-name="Path 62" d="M53.854,10.182h.738V10.8h.057a1.163,1.163,0,0,1,1.16-.692,1.264,1.264,0,0,1,1.345,1.445v2.516h-.767V11.745c0-.625-.271-.935-.839-.935a.891.891,0,0,0-.928.985v2.273h-.767Z" transform="translate(-38.161 -8.665)" fill="#fff"/>
      <path id="Path_63" data-name="Path 63" d="M59.094,8.437h.767v5.4h-.767Z" transform="translate(-38.879 -8.437)" fill="#fff"/>
      <path id="Path_64" data-name="Path 64" d="M61.216,12.124a1.841,1.841,0,1,1,3.666,0,1.842,1.842,0,1,1-3.666,0Zm2.876,0c0-.842-.378-1.335-1.043-1.335s-1.042.493-1.042,1.335.375,1.338,1.042,1.338,1.043-.492,1.043-1.338Z" transform="translate(-39.169 -8.666)" fill="#fff"/>
      <path id="Path_65" data-name="Path 65" d="M66.4,12.97c0-.7.521-1.1,1.445-1.16l1.053-.061v-.335c0-.41-.271-.642-.8-.642-.428,0-.725.157-.81.432h-.743c.078-.668.706-1.1,1.588-1.1.974,0,1.524.485,1.524,1.306v2.655h-.738v-.546h-.061a1.307,1.307,0,0,1-1.167.61,1.174,1.174,0,0,1-1.3-1.163Zm2.5-.332v-.325l-.949.061c-.535.036-.778.218-.778.56s.3.553.721.553a.916.916,0,0,0,1.006-.85Z" transform="translate(-39.88 -8.666)" fill="#fff"/>
      <path id="Path_66" data-name="Path 66" d="M71.348,11.9c0-1.228.631-2.006,1.613-2.006a1.281,1.281,0,0,1,1.192.682h.057V8.437h.767v5.4h-.735v-.614h-.061a1.349,1.349,0,0,1-1.22.678C71.973,13.9,71.348,13.126,71.348,11.9Zm.792,0c0,.824.389,1.32,1.038,1.32s1.046-.5,1.046-1.317-.4-1.32-1.046-1.32-1.038.5-1.038,1.317Z" transform="translate(-40.557 -8.437)" fill="#fff"/>
      <path id="Path_67" data-name="Path 67" d="M79.229,12.124a1.841,1.841,0,1,1,3.665,0,1.841,1.841,0,1,1-3.665,0Zm2.877,0c0-.842-.378-1.335-1.043-1.335s-1.042.493-1.042,1.335.375,1.338,1.042,1.338S82.105,12.97,82.105,12.124Z" transform="translate(-41.636 -8.666)" fill="#fff"/>
      <path id="Path_68" data-name="Path 68" d="M84.669,10.182h.738V10.8h.057a1.163,1.163,0,0,1,1.16-.692,1.264,1.264,0,0,1,1.345,1.445v2.516H87.2V11.745c0-.625-.271-.935-.839-.935a.891.891,0,0,0-.928.985v2.273h-.767Z" transform="translate(-42.382 -8.665)" fill="#fff"/>
      <path id="Path_69" data-name="Path 69" d="M93.3,9.074v.985h.842V10.7H93.3v2c0,.407.168.585.55.585a2.56,2.56,0,0,0,.292-.018v.639a2.516,2.516,0,0,1-.417.039c-.853,0-1.193-.3-1.193-1.049V10.7h-.617v-.646h.617V9.074Z" transform="translate(-43.374 -8.524)" fill="#fff"/>
      <path id="Path_70" data-name="Path 70" d="M95.7,8.437h.76v2.142h.061a1.2,1.2,0,0,1,1.185-.7,1.28,1.28,0,0,1,1.338,1.449V13.84h-.768V11.52c0-.621-.289-.935-.831-.935a.908.908,0,0,0-.979.985v2.27H95.7Z" transform="translate(-43.893 -8.437)" fill="#fff"/>
      <path id="Path_71" data-name="Path 71" d="M104.206,13.02a1.578,1.578,0,0,1-1.684,1.124,1.765,1.765,0,0,1-1.8-2.006,1.792,1.792,0,0,1,1.792-2.03c1.081,0,1.734.739,1.734,1.959v.268h-2.744v.043a1.027,1.027,0,0,0,1.035,1.113.932.932,0,0,0,.925-.471Zm-2.7-1.252h1.963a.938.938,0,0,0-.957-1.007.994.994,0,0,0-1.006,1.007Z" transform="translate(-44.579 -8.666)" fill="#fff"/>
    </g>
  </g>
</svg>
